Coordinates
version=1
nRows=8
nColumns=40
inDegrees=yes
endheader
time	pelvis_tilt	pelvis_list	pelvis_rotation	pelvis_tx	pelvis_ty	pelvis_tz	hip_flexion_r	hip_adduction_r	hip_rotation_r	knee_angle_r	knee_angle_r_beta	ankle_angle_r	subtalar_angle_r	mtp_angle_r	hip_flexion_l	hip_adduction_l	hip_rotation_l	knee_angle_l	knee_angle_l_beta	ankle_angle_l	subtalar_angle_l	mtp_angle_l	lumbar_extension	lumbar_bending	lumbar_rotation	arm_flex_r	arm_add_r	arm_rot_r	elbow_flex_r	pro_sup_r	wrist_flex_r	wrist_dev_r	arm_flex_l	arm_add_l	arm_rot_l	elbow_flex_l	pro_sup_l	wrist_flex_l	wrist_dev_l
      2.26667000	      1.30309054	      2.17427503	     87.37509502	     -0.02197931	      0.97883787	     -0.21473363	     -2.62584219	     -6.93825832	     -3.42253153	      4.13699983	      0.07220427	      0.20834914	      0.00000000	      0.00000000	     -4.17070116	     -9.04010565	     -7.58669790	      3.30524937	      0.05768748	      0.06017422	      0.00000000	      0.00000000	     -5.24798112	      2.87484599	      1.82833369	      0.00000000	    -14.99997820	      0.00000000	     75.00017584	     45.00000026	      0.00000000	      0.00000000	      0.00000000	    -14.99997820	      0.00000000	     75.00017584	     45.00000026	      0.00000000	      0.00000000
      2.27500000	      1.31982209	      2.22135377	     87.36758668	     -0.02196695	      0.97890749	     -0.21469115	     -2.67212282	     -6.92229194	     -3.43102830	      4.13487665	      0.07216721	      0.17126880	      0.00000000	      0.00000000	     -4.20490914	     -9.05657130	     -7.65056034	      3.33291089	      0.05817027	      0.06966047	      0.00000000	      0.00000000	     -5.29850417	      2.88989717	      1.83985964	      0.00000000	    -14.99997849	      0.00000000	     75.00017584	     45.00000026	      0.00000000	      0.00000000	      0.00000000	    -14.99997849	      0.00000000	     75.00017584	     45.00000026	      0.00000000	      0.00000000
      2.28333000	      1.30448302	      2.17396656	     87.39769440	     -0.02201433	      0.97883773	     -0.21471436	     -2.63355171	     -6.93729335	     -3.45314687	      4.12715252	      0.07203240	      0.21180234	      0.00000000	      0.00000000	     -4.15263566	     -9.04350937	     -7.58182560	      3.32557414	      0.05804222	      0.06146975	      0.00000000	      0.00000000	     -5.21805493	      2.87512450	      1.80550137	      0.00000000	    -14.99997893	      0.00000000	     75.00017584	     45.00000026	      0.00000000	      0.00000000	      0.00000000	    -14.99997893	      0.00000000	     75.00017584	     45.00000026	      0.00000000	      0.00000000
      2.29167000	      1.30700071	      2.18210083	     87.39107089	     -0.02199486	      0.97884890	     -0.21468301	     -2.64201493	     -6.93232419	     -3.42934741	      4.12459523	      0.07198777	      0.21826882	      0.00000000	      0.00000000	     -4.17030036	     -9.04668814	     -7.59809905	      3.31102437	      0.05778828	      0.05857114	      0.00000000	      0.00000000	     -5.20977458	      2.87650477	      1.80446950	      0.00000000	    -14.99997942	      0.00000000	     75.00017584	     45.00000026	      0.00000000	      0.00000000	      0.00000000	    -14.99997942	      0.00000000	     75.00017584	     45.00000026	      0.00000000	      0.00000000
      2.30000000	      1.30708021	      2.21504374	     87.30844178	     -0.02185726	      0.97891636	     -0.21460990	     -2.65660482	     -6.93343335	     -3.32218375	      4.11614662	      0.07184031	      0.15214564	      0.00000000	      0.00000000	     -4.22231796	     -9.04174884	     -7.73354198	      3.30321600	      0.05765200	      0.02706253	      0.00000000	      0.00000000	     -5.25435098	      2.86613164	      1.88347754	      0.00000000	    -14.99997995	      0.00000000	     75.00017584	     45.00000026	      0.00000000	      0.00000000	      0.00000000	    -14.99997995	      0.00000000	     75.00017584	     45.00000026	      0.00000000	      0.00000000
      2.30833000	      1.26168492	      2.19537193	     87.36112847	     -0.02192397	      0.97887083	     -0.21458636	     -2.63245795	     -6.98454162	     -3.39902286	      4.14183670	      0.07228869	      0.20274348	      0.00000000	      0.00000000	     -4.18646883	     -8.99426324	     -7.61679840	      3.30311603	      0.05765025	      0.02882094	      0.00000000	      0.00000000	     -5.21776285	      2.81473466	      1.81816590	      0.00000000	    -14.99998188	      0.00000000	     75.00017584	     45.00000026	      0.00000000	      0.00000000	      0.00000000	    -14.99998188	      0.00000000	     75.00017584	     45.00000026	      0.00000000	      0.00000000
      2.31667000	      1.30155004	      2.18829409	     87.37137730	     -0.02195204	      0.97887359	     -0.21453935	     -2.62258555	     -6.93812759	     -3.41966907	      4.14440075	      0.07233344	      0.20480384	      0.00000000	      0.00000000	     -4.17120492	     -9.03925957	     -7.60013089	      3.31091344	      0.05778634	      0.04700994	      0.00000000	      0.00000000	     -5.19914349	      2.86408047	      1.81126415	      0.00000000	    -14.99998239	      0.00000000	     75.00017584	     45.00000026	      0.00000000	      0.00000000	      0.00000000	    -14.99998239	      0.00000000	     75.00017584	     45.00000026	      0.00000000	      0.00000000
      2.32500000	      1.28137517	      2.21422046	     87.33316782	     -0.02188737	      0.97891319	     -0.21448453	     -2.64212361	     -6.96063476	     -3.36960421	      4.13868814	      0.07223373	      0.20245602	      0.00000000	      0.00000000	     -4.20358052	     -9.01530157	     -7.66047227	      3.31122771	      0.05779183	      0.04431470	      0.00000000	      0.00000000	     -5.22466332	      2.83283358	      1.84008569	      0.00000000	    -14.99998284	      0.00000000	     75.00017584	     45.00000026	      0.00000000	      0.00000000	      0.00000000	    -14.99998284	      0.00000000	     75.00017584	     45.00000026	      0.00000000	      0.00000000
